<?xml version="1.0" encoding="utf-8"?>
<!-- Generator: Adobe Illustrator 19.0.0, SVG Export Plug-In . SVG Version: 6.00 Build 0)  -->
<svg version="1.1" id="Réteg_1" xmlns="http://www.w3.org/2000/svg" xmlns:xlink="http://www.w3.org/1999/xlink" x="0px" y="0px"
	 viewBox="0 0 500 87" style="enable-background:new 0 0 500 87;" xml:space="preserve">
<style type="text/css">
	.st0{fill:#FFFFFF;stroke:#000000;stroke-width:0.5;stroke-miterlimit:10;}
	.st1{fill:#3F403F;}
	.st2{fill:#E9792E;stroke:#FFFFFF;stroke-width:0.25;stroke-miterlimit:10;}
	.st3{fill:#E9792E;}
	.st4{fill:#FFFFFF;}
	.st5{fill:#3F403F;stroke:#FFFFFF;stroke-width:0.25;stroke-miterlimit:10;}
</style>
<circle id="XMLID_65_" class="st0" cx="44.5" cy="45" r="41.7"/>
<path id="XMLID_27_" class="st1" d="M46.1,66.5c0,0,10.9,3.5,17.3,0.4c0,0,3.3-8.9,4-11.6c0,0,2.5,4.2,4,4.7c0.1,0,0.2,0.1,0.3,0.1
	c1.5,0,7.2-4.5,14.3-16.9c0,0-2.1,0.1-5.1-1c0,0-6.1,2.9-7.5,5.8c0,0,3-6.4-3.6-13c0.1-0.5,0-0.6,0-0.6s-0.1-3.5-4.2-5.1
	c0,0-1.7-2.1-5.5-3.1c0,0,0.8-1.8,0.9-2.5c0,0-4.3-2.2-4.6-5.6c0,0,1.6,5.5,7.5,5.8c0,0,1.9,0.6,2.7-0.9c0,0,0.4-0.7-0.6-2
	c0,0,0.8-0.9,1-0.9c0.2,0,0-0.8-0.1-0.9c0,0,0.9-0.4,0.1-1.4c0,0,2.1-0.4,1.7-1.3c0,0-2-2.8-1.7-4.2c0.3-1.4-0.1,0-0.1,0
	s1-0.8,0.5-2.4c0,0-0.3-0.6-0.3-1.9c0,0-0.3-2-0.8-2.3L50.6,9L51,19.1l-1,0.8c0,0-0.5,2.9-7.7,2.2c0,0-0.1,1.4-0.8,1.8
	c0,0,1.5,1.9,0,3.5c0,0,1.5,1.4,0,3.5c0,0,0.5,0.9,0.4,1.7c0,0,2.3-0.3,5.9,7.1c0,0,1.7,4.5,2.3,6.1c0.5,1.6-10.1,2.3-10.1,2.3
	l-0.9,2.3c0,0,2.7,6,4.6,6.9S47.6,65,46.1,66.5z"/>
<circle id="XMLID_64_" class="st1" cx="88.8" cy="35.6" r="7.8"/>
<ellipse id="XMLID_63_" class="st2" cx="85.3" cy="34.8" rx="8.3" ry="8.4"/>
<path id="XMLID_62_" class="st1" d="M44.8,81.9c-4.6-6.5,0.8-13.6,0.8-13.6c-1.8,3.6-2.1,7.9-2.1,7.9c19.1-0.3,19.1,3.4,19.1,3.4
	c-0.6-6.1,0.5-11.2,0.5-11.2c-0.9,3.6,1.3,13.3,1.3,13.3C64,82.4,44.8,81.9,44.8,81.9z"/>
<path id="XMLID_61_" class="st1" d="M39.1,81.9c0,0-2.8,3.9-5.7,3.2c-2.9-0.4-10.9-4.7-10.9-4.7L39.1,81.9z"/>
<path id="XMLID_60_" class="st1" d="M91.2,27.7"/>
<path id="XMLID_76_" class="st3" d="M37,66.4c0,0,5.2-4.6,6-7.8c0,0,1-2.4,2.7-3.7c1.6-1.3-0.2,0-0.2,0s-4.9-2.3-5.3-6.9
	c-0.4-4.6,0,0,0,0s-2.8-2.4-2.1-7.7c0.7-5.2,0,0,0,0l-0.2-6.5c0,0,3.3-3.1,6.1,0.5c0,0,2.5,2.4,3.6,6c0,0,2.8,6.4,3.5,7.2
	c0,0,4.2,5.3,3.5,8c0,0,0.6,1.7-8.1,7.5c0,0-5.9,3.9-6.6,4.7c0,0,2.1,7,1.2,7.9c-0.9,0.9-0.2,0-0.2,0L37,66.4z"/>
<path id="XMLID_75_" class="st3" d="M37.8,33.9c0,0-3.8,3-2.9,7.3s0,0,0,0s1.2,4.8,4.1,6.3c2.9,1.5,0,0,0,0s-1.9-2.4-1-7.1
	c0.9-4.8,0,0,0,0L37.8,33.9"/>
<path id="XMLID_59_" class="st1" d="M35.4,64.8c0,0,9.9,8.7,3.6,17.1c0,0-10.4-0.3-16.6-1.5c0,0-1.5-7.3-1-10.5L35.4,64.8z"/>
<path id="XMLID_58_" class="st3" d="M50.1,20c0,0,0.7-0.5,1,0c0,0,4.9-2.1,3.9-3.7c0,0-0.9,0-1-0.6c0,0,0.8-1.3,0.6-1.7
	c0,0-0.3-2.9,1-2.8c0,0,2-0.1,1.5,3.1h1.5c0,0,0.7-6.7,7.7-8.6c0,0,1.6-0.7,0-5.7c0,0,0.9,2-11.1,1.1c0,0-5.9,0.3-6.5,5.7
	c0,0-1.2,3.5,0.9,6.9C49.5,13.6,50.8,17.4,50.1,20z"/>
<path id="XMLID_57_" class="st3" d="M20.2,51.6c0,0,1.7,14.4,1.3,18.3c0,0,10.4-3.9,13.9-5.2c0,0-2-3.5,2-10.1c0,0-4.5-1.8-11.9-1.6
	C25.5,53.1,20.4,52.4,20.2,51.6z"/>
<path id="XMLID_23_" class="st3" d="M38.4,30.9c0,0-1.4-1.2-1.7-6.3c0,0-0.5,3.4-6.8,5.7l-0.3,1.2c0,0-1.9,0.2-2.7,2.1
	c0,0-5.8,3.3-5.8,6l2,2.5L38.4,30.9z"/>
<path id="XMLID_71_" class="st4" d="M62.7,79.6c0,0-0.5-6.9,0.7-12.7c0,0-5.8,3-17.3-0.4c0,0-2.3,5.3-2.5,9.7
	C43.6,76.2,61.9,75.8,62.7,79.6z"/>
<circle id="XMLID_56_" class="st1" cx="4.3" cy="39" r="5"/>
<path id="XMLID_55_" class="st3" d="M18.6,44.7c0,0-0.7,1.2-1.4,2c0,0,0-1-2.2-2.7c0,0-3.5-2.7-4.3-3.8c0,0-4.9,4.8-9.3-1
	c0,0-0.2,4.4,6.3,3.8c0,0,0.9,0.4,1,0.8L14.9,54c0,0,1.6,2.2,5.6-0.4c4-2.5,3.1-3.4,3.1-3.4L18.6,44.7z"/>
<circle id="XMLID_54_" class="st5" cx="6.3" cy="36.7" r="5.5"/>
<path id="XMLID_114_" class="st4" d="M37.4,54.7l2.7-6.7c0,0-2.9-2.2-2.1-7.7c0,0-0.9,4.5,1.4,7.8c0,0-9.5-7.5-1.2-14.6
	c0,0-0.6-1.5,0.6-2.7l-0.5,0c0,0-8,3.5-8,4.2c0,0-7.3,5.3-7.6,5c0,0-1.4,0.2-1.8-0.4c0,0-4.8,2.9-1,8.6l0.2,3.3l0.2,2L37.4,54.7z"/>
<path id="XMLID_68_" class="st1" d="M36.1,20c0,0-6.1-2.2-8.1-7.2c0,0-0.9,3.1-3.9,4.7l0.1,2c0,0-4.5-7.6,5.1-11.1
	c0,0,5-1.8,8.8,2.2c0,0,3.6,2.1,2.2,8.9c0,0,1.3,0,0.7,1.1c0,0,1.7,1.6-0.1,3.4c0,0,1.6,1.7-0.1,3.5c0,0,1.7,2-0.1,3.5
	c0,0,1.5,1.5,0,3.1c0,0,1.3,1.2,0.1,2.7c0,0,1.8,0.9-0.2,1.4c0,0,2.6,3.2-2.3,6.2c0,0,1.6-1.5,0-4.1c0,0-0.2-1.5,0.5-1.9
	c0,0-1.6-0.5-0.3-1.3c0,0-1.2-1.6,0.1-3c0,0-1.3-1.7,0.2-3.2c0,0-2.3-2.2-1.1-8.3c0,0,0.3-1.1,0.5-2.1L36.1,20z"/>
<path id="XMLID_111_" class="st3" d="M28,13.9c0,0-1.4,2.7-3.9,3.6c0,0,0,0.7,0,1.6c0,1.3,0.1,3.2,0.3,4.2c0.3,1.6,1.1,2.4,3.5,6.1
	c0,0,1.9,1.1,3.7-0.7c0,0,5.4-2.7,5.3-6.2c0,0,1.1,1,1.3-2.1c0,0,1.2-1.2,0.3-2.5c0,0-1.6-0.9-2.5,2.1C36.1,20,30.3,18.9,28,13.9z"
	/>
<path id="XMLID_53_" class="st1" d="M44.8,81.9l0.8,4.7c0,0,9.7,0.2,18.9-5.1C64.5,81.6,44,80.4,44.8,81.9z"/>
<g id="XMLID_4_">
	<path id="XMLID_51_" class="st1" d="M142.1,21.8h-27.3v17.5h22.8c2.1,0,3.7,0.5,4.7,1.4c1,0.9,1.6,2.2,1.6,3.8s-0.5,2.8-1.6,3.8
		c-1.1,0.9-2.6,1.4-4.7,1.4h-22.8v22.5c0,2.9-0.6,5-1.9,6.4c-1.3,1.4-2.9,2.1-5,2.1c-2.1,0-3.7-0.7-5-2.1c-1.3-1.4-1.9-3.5-1.9-6.3
		V19.6c0-2,0.3-3.6,0.9-4.9c0.6-1.3,1.5-2.2,2.8-2.8c1.3-0.6,2.9-0.9,4.8-0.9h32.7c2.2,0,3.9,0.5,4.9,1.5c1.1,1,1.6,2.3,1.6,3.9
		c0,1.6-0.5,2.9-1.6,3.9C146,21.3,144.3,21.8,142.1,21.8z"/>
	<path id="XMLID_47_" class="st1" d="M159.5,72.3V18.4c0-2.8,0.6-4.9,1.9-6.3c1.3-1.4,2.9-2.1,4.9-2.1c2.1,0,3.8,0.7,5.1,2.1
		c1.3,1.4,1.9,3.5,1.9,6.3v53.9c0,2.8-0.6,4.9-1.9,6.3c-1.3,1.4-3,2.1-5.1,2.1c-2,0-3.6-0.7-4.9-2.1
		C160.2,77.2,159.5,75.1,159.5,72.3z"/>
	<path id="XMLID_43_" class="st1" d="M233.3,22.6h-15.1v49.7c0,2.9-0.6,5-1.9,6.4c-1.3,1.4-2.9,2.1-4.9,2.1c-2.1,0-3.7-0.7-5-2.1
		c-1.3-1.4-1.9-3.5-1.9-6.3V22.6h-15.1c-2.4,0-4.1-0.5-5.3-1.6c-1.2-1-1.7-2.4-1.7-4.1c0-1.8,0.6-3.2,1.8-4.2s2.9-1.5,5.2-1.5h44.1
		c2.4,0,4.2,0.5,5.3,1.6c1.2,1.1,1.8,2.4,1.8,4.2c0,1.7-0.6,3.1-1.8,4.1C237.5,22,235.7,22.6,233.3,22.6z"/>
	<path id="XMLID_39_" class="st3" d="M277.9,79.6h-20.9c-3,0-5.2-0.7-6.5-2c-1.3-1.4-1.9-3.5-1.9-6.5V19.6c0-3,0.7-5.2,2-6.5
		c1.3-1.3,3.5-2,6.4-2h22.2c3.3,0,6.1,0.2,8.5,0.6c2.4,0.4,4.5,1.2,6.4,2.3c1.6,1,3,2.2,4.3,3.7c1.2,1.5,2.2,3.1,2.8,4.9
		c0.7,1.8,1,3.7,1,5.7c0,6.8-3.4,11.9-10.3,15c9,2.9,13.5,8.4,13.5,16.7c0,3.8-1,7.3-2.9,10.3c-2,3.1-4.6,5.3-7.9,6.8
		c-2.1,0.9-4.5,1.5-7.2,1.8C284.6,79.4,281.5,79.6,277.9,79.6z M262.4,21.5v17.7h12.7c3.5,0,6.1-0.3,8-1c1.9-0.7,3.3-1.9,4.3-3.7
		c0.8-1.3,1.2-2.8,1.2-4.4c0-3.5-1.2-5.7-3.7-6.9c-2.5-1.1-6.2-1.7-11.2-1.7H262.4z M276.8,49.2h-14.4v20h14.9c9.4,0,14-3.4,14-10.1
		c0-3.5-1.2-6-3.6-7.5C285.3,49.9,281.7,49.2,276.8,49.2z"/>
	<path id="XMLID_36_" class="st3" d="M357.5,71.8l-3.3-8.6h-27.8l-3.3,8.8c-1.3,3.4-2.4,5.7-3.3,6.9c-0.9,1.2-2.4,1.8-4.4,1.8
		c-1.7,0-3.3-0.6-4.6-1.9c-1.3-1.3-2-2.7-2-4.3c0-0.9,0.2-1.9,0.5-2.9c0.3-1,0.8-2.4,1.5-4.2L328.4,23c0.5-1.3,1.1-2.8,1.8-4.6
		c0.7-1.8,1.4-3.3,2.2-4.5c0.8-1.2,1.8-2.1,3.1-2.9c1.3-0.7,2.9-1.1,4.8-1.1c1.9,0,3.5,0.4,4.8,1.1c1.3,0.7,2.3,1.7,3.1,2.8
		c0.8,1.2,1.5,2.4,2,3.7c0.5,1.3,1.2,3.1,2.1,5.3L370.2,67c1.4,3.4,2.1,5.8,2.1,7.3c0,1.6-0.7,3-2,4.4c-1.3,1.3-2.9,2-4.8,2
		c-1.1,0-2-0.2-2.8-0.6c-0.8-0.4-1.4-0.9-2-1.6c-0.5-0.7-1.1-1.7-1.7-3.1C358.5,74.1,358,72.9,357.5,71.8z M330.1,52.8h20.4
		l-10.3-28.2L330.1,52.8z"/>
	<path id="XMLID_30_" class="st3" d="M434.5,59c0,4.1-1.1,7.9-3.2,11.2c-2.1,3.3-5.3,5.9-9.4,7.7c-4.1,1.9-9,2.8-14.6,2.8
		c-6.8,0-12.3-1.3-16.7-3.8c-3.1-1.8-5.6-4.3-7.6-7.4c-1.9-3.1-2.9-6-2.9-8.9c0-1.7,0.6-3.1,1.8-4.3c1.2-1.2,2.7-1.8,4.5-1.8
		c1.5,0,2.7,0.5,3.7,1.4c1,0.9,1.9,2.3,2.6,4.2c0.9,2.2,1.8,4,2.8,5.5c1,1.5,2.4,2.7,4.3,3.6c1.8,1,4.2,1.4,7.2,1.4
		c4.1,0,7.4-1,10-2.9c2.6-1.9,3.9-4.3,3.9-7.2c0-2.3-0.7-4.1-2.1-5.5c-1.4-1.4-3.2-2.5-5.4-3.2c-2.2-0.7-5.1-1.5-8.8-2.4
		c-4.9-1.2-9-2.5-12.3-4c-3.3-1.5-5.9-3.6-7.9-6.3c-1.9-2.7-2.9-6-2.9-9.9c0-3.8,1-7.1,3.1-10c2.1-2.9,5-5.2,8.9-6.7
		c3.9-1.6,8.5-2.4,13.7-2.4c4.2,0,7.8,0.5,10.9,1.6c3.1,1,5.6,2.4,7.6,4.2s3.5,3.5,4.4,5.4c0.9,1.9,1.4,3.8,1.4,5.6
		c0,1.6-0.6,3.1-1.8,4.5c-1.2,1.3-2.6,2-4.4,2c-1.6,0-2.8-0.4-3.6-1.2c-0.8-0.8-1.7-2.1-2.7-3.9c-1.2-2.6-2.7-4.6-4.5-6
		c-1.7-1.4-4.5-2.2-8.4-2.2c-3.6,0-6.5,0.8-8.7,2.4c-2.2,1.6-3.3,3.5-3.3,5.7c0,1.4,0.4,2.6,1.1,3.5c0.7,1,1.8,1.9,3.1,2.6
		c1.3,0.7,2.6,1.3,4,1.7c1.3,0.4,3.5,1,6.6,1.8c3.9,0.9,7.4,1.9,10.5,3c3.1,1.1,5.8,2.4,8,4c2.2,1.6,3.9,3.5,5.1,5.9
		C433.9,52.6,434.5,55.6,434.5,59z"/>
	<path id="XMLID_19_" class="st3" d="M491.3,21.8h-31.2v16.8h28.8c2.1,0,3.7,0.5,4.7,1.4c1,0.9,1.6,2.2,1.6,3.8
		c0,1.6-0.5,2.8-1.5,3.8s-2.6,1.5-4.8,1.5h-28.8v19.5h32.3c2.2,0,3.8,0.5,4.9,1.5c1.1,1,1.7,2.4,1.7,4c0,1.6-0.6,2.9-1.7,3.9
		c-1.1,1-2.7,1.5-4.9,1.5h-37.7c-3,0-5.2-0.7-6.5-2c-1.3-1.3-2-3.5-2-6.5V19.6c0-2,0.3-3.6,0.9-4.9c0.6-1.3,1.5-2.2,2.8-2.8
		c1.3-0.6,2.9-0.9,4.8-0.9h36.6c2.2,0,3.9,0.5,4.9,1.5s1.6,2.3,1.6,3.9c0,1.6-0.5,2.9-1.6,3.9C495.2,21.3,493.6,21.8,491.3,21.8z"/>
</g>
</svg>
